<svg width="15" height="13" viewBox="0 0 15 13" fill="none" xmlns="http://www.w3.org/2000/svg">
<path d="M0 6.31304C0 6.50293 0.0835503 6.67763 0.23546 6.82194L5.27886 11.8577C5.43077 12.0021 5.59028 12.0704 5.77257 12.0704C6.14475 12.0704 6.44097 11.797 6.44097 11.4172C6.44097 11.2349 6.37261 11.0526 6.25108 10.9387L4.5497 9.20692L1.99002 6.87511L3.82812 6.98904H13.4364C13.8314 6.98904 14.1048 6.70801 14.1048 6.31304C14.1048 5.91808 13.8314 5.63704 13.4364 5.63704H3.82812L1.99761 5.75098L4.5497 3.41916L6.25108 1.68739C6.37261 1.56586 6.44097 1.39117 6.44097 1.20888C6.44097 0.829102 6.14475 0.555664 5.77257 0.555664C5.59028 0.555664 5.43077 0.616428 5.26367 0.783529L0.23546 5.80414C0.0835503 5.94846 0 6.12316 0 6.31304Z" fill="#71ABD2"/>
</svg>
