<svg width="16" height="16" viewBox="0 0 16 16" fill="none" xmlns="http://www.w3.org/2000/svg">
    <path d="M6.8235 7.45351C6.6782 7.44121 6.53257 7.47306 6.40567 7.5449C6.27878 7.61673 6.17653 7.72521 6.1123 7.85613C6.04808 7.98705 6.02489 8.1343 6.04575 8.27862C6.06661 8.42294 6.13056 8.5576 6.22923 8.66497C6.32789 8.77234 6.45668 8.84743 6.59872 8.88039C6.74077 8.91335 6.88946 8.90266 7.02532 8.84971C7.16119 8.79676 7.27791 8.70402 7.36019 8.58364C7.44248 8.46326 7.4865 8.32083 7.4865 8.17501C7.49039 8.08409 7.47632 7.9933 7.4451 7.90782C7.41388 7.82234 7.36611 7.74385 7.30454 7.67685C7.24297 7.60984 7.16879 7.55562 7.08625 7.5173C7.00371 7.47898 6.91442 7.4573 6.8235 7.45351ZM9.196 7.45351C9.0507 7.44121 8.90507 7.47306 8.77817 7.5449C8.65128 7.61673 8.54903 7.72521 8.48481 7.85613C8.42058 7.98705 8.39739 8.1343 8.41825 8.27862C8.43911 8.42294 8.50306 8.5576 8.60173 8.66497C8.70039 8.77234 8.82918 8.84743 8.97122 8.88039C9.11327 8.91335 9.26196 8.90266 9.39782 8.84971C9.53369 8.79676 9.65041 8.70402 9.73269 8.58364C9.81498 8.46326 9.859 8.32083 9.859 8.17501C9.86289 8.08409 9.84882 7.9933 9.8176 7.90782C9.78638 7.82234 9.73861 7.74385 9.67704 7.67685C9.61547 7.60984 9.54129 7.55562 9.45875 7.5173C9.37621 7.47898 9.28692 7.4573 9.196 7.45351Z" fill="#fff"/>
    <path d="M13.36 1H2.64C2.42411 1.00048 2.21043 1.04083 2.01117 1.11874C1.8119 1.19665 1.63096 1.31059 1.47867 1.45406C1.32638 1.59752 1.20573 1.76771 1.1236 1.95489C1.04147 2.14208 0.999471 2.3426 1.00001 2.545V12.685C0.999471 12.8874 1.04147 13.0879 1.1236 13.2751C1.20573 13.4623 1.32638 13.6325 1.47867 13.7759C1.63096 13.9194 1.8119 14.0334 2.01117 14.1113C2.21043 14.1892 2.42411 14.2295 2.64 14.23H11.712L11.288 12.8425L12.312 13.735L13.28 14.575L15 16V2.545C15.0005 2.3426 14.9585 2.14208 14.8764 1.95489C14.7943 1.76771 14.6736 1.59752 14.5213 1.45406C14.369 1.31059 14.1881 1.19665 13.9888 1.11874C13.7896 1.04083 13.5759 1.00048 13.36 1ZM10.272 10.795C10.272 10.795 9.984 10.4725 9.744 10.1875C10.3239 10.0595 10.8368 9.74336 11.192 9.295C10.9041 9.4746 10.5955 9.62305 10.272 9.7375C9.89983 9.88643 9.5106 9.99464 9.112 10.06C8.42684 10.1783 7.72417 10.1757 7.04 10.0525C6.63834 9.97882 6.2447 9.87087 5.864 9.73C5.66333 9.65765 5.4682 9.57245 5.28 9.475C5.256 9.46 5.232 9.4525 5.208 9.4375C5.19597 9.43188 5.18512 9.42426 5.176 9.415C5.032 9.34 4.952 9.2875 4.952 9.2875C5.29437 9.72647 5.78957 10.0395 6.352 10.1725C6.112 10.4575 5.816 10.795 5.816 10.795C5.34079 10.807 4.86971 10.7093 4.44424 10.5105C4.01876 10.3117 3.65192 10.0179 3.376 9.655C3.40198 8.13454 3.79588 6.63945 4.528 5.2825C5.17228 4.80812 5.95777 4.53295 6.776 4.495L6.856 4.585C6.08619 4.7636 5.36782 5.09906 4.752 5.5675C4.752 5.5675 4.928 5.4775 5.224 5.35C5.79905 5.10391 6.41192 4.94445 7.04 4.8775C7.08478 4.86881 7.13029 4.86379 7.176 4.8625C7.7121 4.79702 8.25463 4.79198 8.792 4.8475C9.63707 4.93798 10.4551 5.18257 11.2 5.5675C10.6154 5.12138 9.93643 4.79672 9.208 4.615L9.32 4.495C10.1382 4.53295 10.9237 4.80812 11.568 5.2825C12.3001 6.63945 12.694 8.13454 12.72 9.655C12.4419 10.0176 12.0735 10.311 11.6468 10.5096C11.2202 10.7083 10.7482 10.8063 10.272 10.795Z" fill="#fff"/>
</svg>
