<svg width="40" height="40" viewBox="0 0 40 40" fill="none" xmlns="http://www.w3.org/2000/svg">
<path d="M16.2623 21.7102L17.1784 19.1031L18.7685 14.5758L7.54772 8.11353L7.52246 16.6766L16.2623 21.7102Z" fill="#92A2FF"/>
<path d="M7.54751 8.11353L0.125977 12.4161L7.52222 16.6766L7.54751 8.11353Z" fill="#AFC0FF"/>
<path d="M13.3541 29.9854L16.2625 21.7102L7.52263 16.6765L7.49524 26.6094L0.0737305 30.912L7.49524 26.6094L13.3541 29.9854Z" fill="#5A6AFF"/>
<path d="M7.52263 16.6766L0.12638 12.416L0.0737305 30.912L7.49524 26.6094L7.52263 16.6766Z" fill="#4552C5"/>
<path d="M13.3541 29.9854L7.49524 26.6094L0.0737305 30.912L10.848 37.1178V37.1157L13.3541 29.9854Z" fill="#ED6EF6"/>
<path d="M16.2627 21.7103L13.3543 29.9856L18.2676 32.8154L10.8481 37.1158V37.1179L18.2697 32.8154L21.1781 24.5402L16.2627 21.7103Z" fill="#ED6EF6"/>
<path d="M18.2676 32.8154L13.3543 29.9856L10.8481 37.1159L18.2676 32.8154Z" fill="#FEADFF"/>
<path d="M32.4492 12.5064L32.4219 22.4392L39.8183 26.6998L39.8709 8.20386L32.4492 12.5064Z" fill="#5CD8CF"/>
<path d="M32.3965 31.0022L39.8182 26.6996L32.4217 22.4391L32.3965 31.0022Z" fill="#A4FFF0"/>
<path d="M32.4491 12.5064L39.8707 8.20382L29.0985 2H29.0964L26.5903 9.13239L32.4491 12.5064Z" fill="#ED6EF6"/>
<path d="M26.5905 9.13239L29.0966 2L21.6772 6.30255L26.5905 9.13239Z" fill="#FEADFF"/>
<path d="M23.6836 17.4076L32.4213 22.4391L32.4486 12.5063L26.5899 9.13232L23.6836 17.4076Z" fill="#2ABABA"/>
<path d="M32.422 22.4393L23.6843 17.4077H23.6822L21.1782 24.5402L32.3968 31.0024L32.422 22.4393Z" fill="#71F5F2"/>
<path d="M21.6768 6.30249L26.5901 9.13236L23.6837 17.4076L16.2622 21.7102L21.6768 6.30249Z" fill="#F4D7FE"/>
<path d="M21.1776 24.5402L23.6816 17.4077L16.2622 21.7103L21.1776 24.5402Z" fill="#F5F9FF"/>
</svg>
