<svg width="16" height="17" viewBox="0 0 16 17" fill="none" xmlns="http://www.w3.org/2000/svg">
<g clip-path="url(#clip0)">
<path d="M8 0.142822C3.58065 0.142822 0 3.69215 0 8.07285C0 12.4536 3.58065 16.0029 8 16.0029C12.4194 16.0029 16 12.4536 16 8.07285C16 3.69215 12.4194 0.142822 8 0.142822ZM11.929 5.57553L10.6161 11.7085C10.5194 12.1434 10.2581 12.2489 9.89355 12.0443L7.89355 10.583L6.92903 11.5039C6.82258 11.6094 6.73226 11.6989 6.52581 11.6989L6.66774 9.68124L10.3742 6.36214C10.5355 6.22145 10.3387 6.14151 10.1258 6.2822L5.54516 9.14085L3.57097 8.53011C3.14194 8.39581 3.13226 8.10483 3.66129 7.90018L11.3742 4.952C11.7323 4.8241 12.0452 5.03834 11.929 5.57553Z" fill="#fff"/>
</g>
<defs>
<clipPath id="clip0">
<rect width="16" height="15.8601" fill="white" transform="translate(0 0.142822)"/>
</clipPath>
</defs>
</svg>
